<svg xmlns="http://www.w3.org/2000/svg" viewBox="0 0 753.17 628.92">
    <defs>
        <style>
            .cls-1 {
                fill: #fff;
            }

            .cls-2 {
                fill: none;
                stroke: #fff;
                stroke-miterlimit: 10;
            }
        </style>
    </defs>
    <title>Recurso 2</title>
    <g id="Capa_2" data-name="Capa 2">
        <g id="siri">
            <g id="sobrantes">
                <g id="izquierda">
                    <circle class="cls-1" cx="27.08" cy="314.46" r="5" />
                    <circle class="cls-1" cx="27.08" cy="264.46" r="5" />
                    <circle class="cls-1" cx="27.08" cy="214.46" r="5" />
                    <circle class="cls-1" cx="27.08" cy="164.46" r="5" />
                    <circle class="cls-1" cx="27.08" cy="114.46" r="5" />
                    <circle class="cls-1" cx="27.08" cy="64.46" r="5" />
                    <circle class="cls-1" cx="27.08" cy="564.46" r="5" />
                    <circle class="cls-1" cx="27.08" cy="514.46" r="5" />
                    <circle class="cls-1" cx="27.08" cy="464.46" r="5" />
                    <circle class="cls-1" cx="27.08" cy="414.46" r="5" />
                    <circle class="cls-1" cx="27.08" cy="364.46" r="5" />
                    <circle class="cls-1" cx="77.08" cy="264.46" r="5" />
                    <circle class="cls-1" cx="77.08" cy="214.46" r="5" />
                    <circle class="cls-1" cx="77.08" cy="164.46" r="5" />
                    <circle class="cls-1" cx="77.08" cy="114.46" r="5" />
                    <circle class="cls-1" cx="77.08" cy="64.46" r="5" />
                    <circle class="cls-1" cx="77.08" cy="564.46" r="5" />
                    <circle class="cls-1" cx="77.08" cy="514.46" r="5" />
                    <circle class="cls-1" cx="77.08" cy="464.46" r="5" />
                    <circle class="cls-1" cx="77.08" cy="414.46" r="5" />
                    <circle class="cls-1" cx="77.08" cy="364.46" r="5" />
                    <circle class="cls-1" cx="127.08" cy="214.46" r="5" />
                    <circle class="cls-1" cx="127.08" cy="164.46" r="5" />
                    <circle class="cls-1" cx="127.08" cy="114.46" r="5" />
                    <circle class="cls-1" cx="127.08" cy="64.46" r="5" />
                    <circle class="cls-1" cx="127.08" cy="564.46" r="5" />
                    <circle class="cls-1" cx="127.08" cy="514.46" r="5" />
                    <circle class="cls-1" cx="127.08" cy="464.46" r="5" />
                    <circle class="cls-1" cx="127.08" cy="414.46" r="5" />
                    <circle class="cls-1" cx="177.08" cy="114.46" r="5" />
                    <circle class="cls-1" cx="177.08" cy="64.46" r="5" />
                    <circle class="cls-1" cx="177.08" cy="564.46" r="5" />
                    <circle class="cls-1" cx="177.08" cy="514.46" r="5" />
                </g>
                <g id="derecha">
                    <circle class="cls-1" cx="577.08" cy="114.46" r="5" />
                    <circle class="cls-1" cx="577.08" cy="64.46" r="5" />
                    <circle class="cls-1" cx="577.08" cy="564.46" r="5" />
                    <circle class="cls-1" cx="577.08" cy="514.46" r="5" />
                    <circle class="cls-1" cx="627.08" cy="214.46" r="5" />
                    <circle class="cls-1" cx="627.08" cy="164.46" r="5" />
                    <circle class="cls-1" cx="627.08" cy="114.46" r="5" />
                    <circle class="cls-1" cx="627.08" cy="64.46" r="5" />
                    <circle class="cls-1" cx="627.08" cy="564.46" r="5" />
                    <circle class="cls-1" cx="627.08" cy="514.46" r="5" />
                    <circle class="cls-1" cx="627.08" cy="464.46" r="5" />
                    <circle class="cls-1" cx="627.08" cy="414.46" r="5" />
                    <circle class="cls-1" cx="677.08" cy="264.46" r="5" />
                    <circle class="cls-1" cx="677.08" cy="214.46" r="5" />
                    <circle class="cls-1" cx="677.08" cy="164.46" r="5" />
                    <circle class="cls-1" cx="677.08" cy="114.46" r="5" />
                    <circle class="cls-1" cx="677.08" cy="64.46" r="5" />
                    <circle class="cls-1" cx="677.08" cy="564.46" r="5" />
                    <circle class="cls-1" cx="677.08" cy="514.46" r="5" />
                    <circle class="cls-1" cx="677.08" cy="464.46" r="5" />
                    <circle class="cls-1" cx="677.08" cy="414.46" r="5" />
                    <circle class="cls-1" cx="677.08" cy="364.46" r="5" />
                    <circle class="cls-1" cx="727.08" cy="314.46" r="5" />
                    <circle class="cls-1" cx="727.08" cy="264.46" r="5" />
                    <circle class="cls-1" cx="727.08" cy="214.46" r="5" />
                    <circle class="cls-1" cx="727.08" cy="164.46" r="5" />
                    <circle class="cls-1" cx="727.08" cy="114.46" r="5" />
                    <circle class="cls-1" cx="727.08" cy="64.46" r="5" />
                    <circle class="cls-1" cx="727.08" cy="564.46" r="5" />
                    <circle class="cls-1" cx="727.08" cy="514.46" r="5" />
                    <circle class="cls-1" cx="727.08" cy="464.46" r="5" />
                    <circle class="cls-1" cx="727.08" cy="414.46" r="5" />
                    <circle class="cls-1" cx="727.08" cy="364.46" r="5" />
                </g>
            </g>
            <g id="middleline">
                <circle class="cls-1" cx="377.08" cy="214.46" r="5" />
                <circle class="cls-1" cx="377.08" cy="164.46" r="5" />
                <circle class="cls-1" cx="377.08" cy="114.46" r="5" />
                <circle class="cls-1" cx="377.08" cy="64.46" r="5" />
                <circle class="cls-1" cx="377.08" cy="564.46" r="5" />
                <circle class="cls-1" cx="377.08" cy="514.46" r="5" />
                <circle class="cls-1" cx="377.08" cy="464.46" r="5" />
                <circle class="cls-1" cx="377.08" cy="414.46" r="5" />
            </g>
            <g id="primeralineaderecha">
                <circle class="cls-1" cx="427.08" cy="264.46" r="5" />
                <circle class="cls-1" cx="427.08" cy="214.46" r="5" />
                <circle class="cls-1" cx="427.08" cy="164.46" r="5" />
                <circle class="cls-1" cx="427.08" cy="114.46" r="5" />
                <circle class="cls-1" cx="427.08" cy="564.46" r="5" />
                <circle class="cls-1" cx="427.08" cy="514.46" r="5" />
                <circle class="cls-1" cx="427.08" cy="464.46" r="5" />
                <circle class="cls-1" cx="427.08" cy="414.46" r="5" />
                <circle class="cls-1" cx="427.08" cy="364.46" r="5" />
                <circle class="cls-1" cx="427.08" cy="64.46" r="5" />
            </g>
            <g id="segundalineaderecha">
                <circle class="cls-1" cx="477.08" cy="314.46" r="5" />
                <circle class="cls-1" cx="477.08" cy="264.46" r="5" />
                <circle class="cls-1" cx="477.08" cy="214.46" r="5" />
                <circle class="cls-1" cx="477.08" cy="164.46" r="5" />
                <circle class="cls-1" cx="477.08" cy="114.46" r="5" />
                <circle class="cls-1" cx="477.08" cy="64.46" r="5" />
                <circle class="cls-1" cx="477.08" cy="564.46" r="5" />
                <circle class="cls-1" cx="477.08" cy="514.46" r="5" />
                <circle class="cls-1" cx="477.08" cy="464.46" r="5" />
                <circle class="cls-1" cx="477.08" cy="414.46" r="5" />
                <circle class="cls-1" cx="477.08" cy="364.46" r="5" />
            </g>
            <g id="terceralineaderecha">
                <circle class="cls-1" cx="527.08" cy="314.46" r="5" />
                <circle class="cls-1" cx="527.08" cy="264.46" r="5" />
                <circle class="cls-1" cx="527.08" cy="214.46" r="5" />
                <circle class="cls-1" cx="527.08" cy="164.46" r="5" />
                <circle class="cls-1" cx="527.08" cy="114.46" r="5" />
                <circle class="cls-1" cx="527.08" cy="64.46" r="5" />
                <circle class="cls-1" cx="527.08" cy="564.46" r="5" />
                <circle class="cls-1" cx="527.08" cy="514.46" r="5" />
                <circle class="cls-1" cx="527.08" cy="464.46" r="5" />
                <circle class="cls-1" cx="527.08" cy="414.46" r="5" />
                <circle class="cls-1" cx="527.08" cy="364.46" r="5" />
            </g>
            <g id="cuartalineaderecha">
                <circle class="cls-1" cx="577.08" cy="314.46" r="5" />
                <circle class="cls-1" cx="577.08" cy="264.46" r="5" />
                <circle class="cls-1" cx="577.08" cy="214.46" r="5" />
                <circle class="cls-1" cx="577.08" cy="164.46" r="5" />
                <circle class="cls-1" cx="577.08" cy="464.46" r="5" />
                <circle class="cls-1" cx="577.08" cy="414.46" r="5" />
                <circle class="cls-1" cx="577.08" cy="364.46" r="5" />
            </g>
            <g id="quintalineaderecha">
                <circle class="cls-1" cx="627.08" cy="314.46" r="5" />
                <circle class="cls-1" cx="627.08" cy="264.46" r="5" />
                <circle class="cls-1" cx="627.08" cy="364.46" r="5" />
            </g>
            <circle id="puntaDerecha" class="cls-1" cx="677.08" cy="314.46" r="5" />
            <circle id="puntaIzquierda" class="cls-1" cx="77.08" cy="314.46" r="5" />
            <g id="quintalineaizquierda">
                <circle class="cls-1" cx="127.08" cy="314.46" r="5" />
                <circle class="cls-1" cx="127.08" cy="264.46" r="5" />
                <circle class="cls-1" cx="127.08" cy="364.46" r="5" />
            </g>
            <g id="cuartalineaizquierda">
                <circle class="cls-1" cx="177.08" cy="314.46" r="5" />
                <circle class="cls-1" cx="177.08" cy="264.46" r="5" />
                <circle class="cls-1" cx="177.08" cy="214.46" r="5" />
                <circle class="cls-1" cx="177.08" cy="164.46" r="5" />
                <circle class="cls-1" cx="177.08" cy="464.46" r="5" />
                <circle class="cls-1" cx="177.08" cy="414.46" r="5" />
                <circle class="cls-1" cx="177.08" cy="364.46" r="5" />
            </g>
            <g id="terceralineaizquierda">
                <circle class="cls-1" cx="227.08" cy="314.46" r="5" />
                <circle class="cls-1" cx="227.08" cy="264.46" r="5" />
                <circle class="cls-1" cx="227.08" cy="214.46" r="5" />
                <circle class="cls-1" cx="227.08" cy="164.46" r="5" />
                <circle class="cls-1" cx="227.08" cy="114.46" r="5" />
                <circle class="cls-1" cx="227.08" cy="64.46" r="5" />
                <circle class="cls-1" cx="227.08" cy="564.46" r="5" />
                <circle class="cls-1" cx="227.08" cy="514.46" r="5" />
                <circle class="cls-1" cx="227.08" cy="464.46" r="5" />
                <circle class="cls-1" cx="227.08" cy="414.46" r="5" />
                <circle class="cls-1" cx="227.08" cy="364.46" r="5" />
            </g>
            <g id="segundalineaizquierda">
                <circle class="cls-1" cx="277.08" cy="314.46" r="5" />
                <circle class="cls-1" cx="277.08" cy="264.46" r="5" />
                <circle class="cls-1" cx="277.08" cy="214.46" r="5" />
                <circle class="cls-1" cx="277.08" cy="164.46" r="5" />
                <circle class="cls-1" cx="277.08" cy="114.46" r="5" />
                <circle class="cls-1" cx="277.08" cy="64.46" r="5" />
                <circle class="cls-1" cx="277.08" cy="564.46" r="5" />
                <circle class="cls-1" cx="277.08" cy="514.46" r="5" />
                <circle class="cls-1" cx="277.08" cy="464.46" r="5" />
                <circle class="cls-1" cx="277.08" cy="414.46" r="5" />
                <circle class="cls-1" cx="277.08" cy="364.46" r="5" />
            </g>
            <g id="middle">
                <circle class="cls-1" cx="377.08" cy="314.46" r="5" />
                <circle class="cls-1" cx="377.08" cy="264.46" r="5" />
                <circle class="cls-1" cx="377.08" cy="364.46" r="5" />
                <circle class="cls-1" cx="427.08" cy="314.46" r="5" />
                <circle class="cls-1" cx="327.08" cy="314.46" r="5" />
            </g>
            <g id="primeralineaizquierda">
                <circle class="cls-1" cx="327.08" cy="264.46" r="5" />
                <circle class="cls-1" cx="327.08" cy="214.46" r="5" />
                <circle class="cls-1" cx="327.08" cy="164.46" r="5" />
                <circle class="cls-1" cx="327.08" cy="114.46" r="5" />
                <circle class="cls-1" cx="327.08" cy="64.46" r="5" />
                <circle class="cls-1" cx="327.08" cy="564.46" r="5" />
                <circle class="cls-1" cx="327.08" cy="514.46" r="5" />
                <circle class="cls-1" cx="327.08" cy="464.46" r="5" />
                <circle class="cls-1" cx="327.08" cy="414.46" r="5" />
                <circle class="cls-1" cx="327.08" cy="364.46" r="5" />
            </g>
            <g id="sobrepoligonos">
                <polygon id="main" class="cls-2" points="526.58 63.96 226.58 63.96 76.58 314.46 226.58 564.96 526.58 564.96 676.58 314.46 526.58 63.96" />
                <polygon id="inside" class="cls-2" points="496.64 113.96 256.52 113.96 136.46 314.46 256.52 514.96 496.64 514.96 616.7 314.46 496.64 113.96" />
                <polygon id="outside" class="cls-2" points="564.58 0.5 188.58 0.5 0.58 314.46 188.58 628.42 564.58 628.42 752.58 314.46 564.58 0.5" />
            </g>
            <g id="equis">
                <line class="cls-2" x1="176.58" y1="363.96" x2="376.58" y2="158.96" />
                <line class="cls-2" x1="171.58" y1="163.96" x2="389.58" y2="368.96" />
            </g>
            <polygon id="figura" class="cls-2" points="226.58 363.96 276.58 313.96 326.58 363.96 376.58 313.96 326.58 263.96 376.58 263.96 426.58 263.96 426.58 313.96 481.58 363.96 526.58 313.96 576.58 213.96 526.58 163.96 626.58 63.96 526.58 113.96 476.58 58.96 476.58 108.96 476.58 163.96 426.58 163.96 376.58 163.96 321.58 163.96 271.58 163.96 226.58 158.96 121.58 268.96 121.58 368.96 176.58 468.96 226.58 363.96" />
        </g>
    </g>
</svg>