<svg xmlns="http://www.w3.org/2000/svg" viewBox="0 0 20 20"><defs><style>.cls-1{fill:#fff;}.cls-2{fill:#131314;}</style></defs><title>Recurso 30</title><g id="Capa_2" data-name="Capa 2"><g id="Capa_5" data-name="Capa 5"><circle class="cls-1" cx="10" cy="10" r="10"/><g id="surface1"><path class="cls-2" d="M15.91,6.33a4.71,4.71,0,0,1-1.39.39,2.44,2.44,0,0,0,1.06-1.34A5,5,0,0,1,14,6,2.43,2.43,0,0,0,9.85,7.62a2.44,2.44,0,0,0,.06.55,6.89,6.89,0,0,1-5-2.53,2.43,2.43,0,0,0,.75,3.24,2.44,2.44,0,0,1-1.1-.3v0a2.42,2.42,0,0,0,2,2.37,2.25,2.25,0,0,1-.64.09A2.31,2.31,0,0,1,5.41,11a2.43,2.43,0,0,0,2.27,1.69,4.88,4.88,0,0,1-3,1,3.69,3.69,0,0,1-.58,0A6.9,6.9,0,0,0,14.71,7.9c0-.1,0-.21,0-.31A5,5,0,0,0,15.91,6.33Z"/></g></g></g></svg>