<svg xmlns="http://www.w3.org/2000/svg" viewBox="0 0 20 20"><defs><style>.cls-1{fill:#fff;}</style></defs><title>Recurso 32</title><g id="Capa_2" data-name="Capa 2"><g id="Capa_5" data-name="Capa 5"><circle class="cls-1" cx="10" cy="10" r="10"/><path d="M10,4.84A5.16,5.16,0,1,0,15.16,10,5.16,5.16,0,0,0,10,4.84Zm0,.86a4.32,4.32,0,0,1,2.84,1.07,3,3,0,0,1-.37.42,5,5,0,0,1-1.85,1.12A20.76,20.76,0,0,0,9,5.81a3.93,3.93,0,0,1,1-.11Zm-1.83.4A20.18,20.18,0,0,1,9.78,8.56a16.62,16.62,0,0,1-4,.53,4.31,4.31,0,0,1,2.38-3Zm5.26,1.31a4.28,4.28,0,0,1,.87,2.48,8.11,8.11,0,0,0-1.68-.17,10.08,10.08,0,0,0-1.28.08c-.1-.25-.22-.48-.33-.71a6,6,0,0,0,2.05-1.28c.15-.15.27-.28.37-.4ZM10.17,9.34l.3.62a7.43,7.43,0,0,0-3.72,2.85A4.27,4.27,0,0,1,5.7,10V10a17.36,17.36,0,0,0,4.47-.61Zm2.45,1.22a6.31,6.31,0,0,1,1.61.19,4.24,4.24,0,0,1-1.76,2.77,15.23,15.23,0,0,0-.79-2.9,8.18,8.18,0,0,1,.94-.06Zm-1.81.21A14.37,14.37,0,0,1,11.68,14a4.31,4.31,0,0,1-4.3-.55,7,7,0,0,1,3.43-2.64Zm0,0"/></g></g></svg>