<svg xmlns="http://www.w3.org/2000/svg" viewBox="0 0 1366 777.859"><defs><style>.a{fill:#131314;}.b{fill:#fff;stroke:#707070;opacity:0.05;}.c{stroke:none;}.d{fill:none;}</style></defs><g transform="translate(0 0.359)"><rect class="a" width="1366" height="777"/><path class="b" d="M3184.53,777l139.86-139.859L3464.249,777Z" transform="translate(-3122)"/><path class="b" d="M3184.53,777l139.86-139.859L3464.249,777Z" transform="translate(4459.779 777.141) rotate(180)"/><g class="b" transform="translate(0 49)"><rect class="c" width="259" height="21"/><rect class="d" x="0.5" y="0.5" width="258" height="20"/></g><g class="b" transform="translate(417.641 292)"><rect class="c" width="259" height="21"/><rect class="d" x="0.5" y="0.5" width="258" height="20"/></g><g class="b" transform="translate(846.352 546)"><rect class="c" width="259" height="21"/><rect class="d" x="0.5" y="0.5" width="258" height="20"/></g><g class="b" transform="translate(130 130)"><rect class="c" width="259" height="21"/><rect class="d" x="0.5" y="0.5" width="258" height="20"/></g><g class="b" transform="translate(548.468 373)"><rect class="c" width="259" height="21"/><rect class="d" x="0.5" y="0.5" width="258" height="20"/></g><g class="b" transform="translate(978 627)"><rect class="c" width="259" height="21"/><rect class="d" x="0.5" y="0.5" width="258" height="20"/></g><g class="b" transform="translate(260.648 211)"><rect class="c" width="259" height="21"/><rect class="d" x="0.5" y="0.5" width="258" height="20"/></g><g class="b" transform="translate(678.289 454)"><rect class="c" width="259" height="21"/><rect class="d" x="0.5" y="0.5" width="258" height="20"/></g><g class="b" transform="translate(1107 708)"><rect class="c" width="259" height="21"/><rect class="d" x="0.5" y="0.5" width="258" height="20"/></g><g class="b" transform="translate(278 488)"><circle class="c" cx="55.5" cy="55.5" r="55.5"/><circle class="d" cx="55.5" cy="55.5" r="55"/></g><g class="b" transform="translate(996 141)"><circle class="c" cx="40.5" cy="40.5" r="40.5"/><circle class="d" cx="40.5" cy="40.5" r="40"/></g><g class="b" transform="translate(1178 409)"><ellipse class="c" cx="20" cy="60.5" rx="20" ry="60.5"/><ellipse class="d" cx="20" cy="60.5" rx="19.5" ry="60"/></g><g class="b" transform="translate(63 211)"><ellipse class="c" cx="25" cy="81" rx="25" ry="81"/><ellipse class="d" cx="25" cy="81" rx="24.5" ry="80.5"/></g></g></svg>