<svg xmlns="http://www.w3.org/2000/svg" viewBox="0 0 37.38 36.08"><defs><style>.cls-1{fill:#f9f9f9;}.cls-2{fill:none;stroke:#007ac6;stroke-miterlimit:10;}</style></defs><title>Recurso 28</title><g id="Capa_2" data-name="Capa 2"><g id="Capa_4" data-name="Capa 4"><rect class="cls-1" width="37.38" height="36.08" rx="5.92" ry="5.92"/><path class="cls-2" d="M14.19,9.44a.32.32,0,0,1,.23-.08h0a.26.26,0,0,1,.21.09.32.32,0,0,1,.08.21v13.4a2.32,2.32,0,0,1-.49,1.4,3.28,3.28,0,0,1-1.32,1,4.23,4.23,0,0,1-1.83.39,5,5,0,0,1-1.43-.19,3.36,3.36,0,0,1-1.12-.56c-.15-.12-.22-.22-.22-.3a.21.21,0,0,1,.09-.16l0,0a.24.24,0,0,1,.15,0,.41.41,0,0,1,.26.1,3.28,3.28,0,0,0,2.21.67A3.51,3.51,0,0,0,12.64,25a2.87,2.87,0,0,0,1.09-.89A1.93,1.93,0,0,0,14.12,23V9.66A.32.32,0,0,1,14.19,9.44Z"/><path class="cls-2" d="M17.83,22.9a.31.31,0,0,1,.09-.22l0,0a.33.33,0,0,1,.17,0,.48.48,0,0,1,.33.21,5.66,5.66,0,0,0,2.12,1.65,7.3,7.3,0,0,0,3,.56,8.49,8.49,0,0,0,2.72-.41,4,4,0,0,0,1.91-1.3A3.54,3.54,0,0,0,28.94,21a2.43,2.43,0,0,0-.83-1.92,5,5,0,0,0-1.86-1q-1-.32-2.64-.63a13.9,13.9,0,0,1-3-.86,4.33,4.33,0,0,1-1.79-1.3,3,3,0,0,1-.6-1.91,3.69,3.69,0,0,1,.7-2.27,4.23,4.23,0,0,1,2-1.44,8.57,8.57,0,0,1,3-.49,7.64,7.64,0,0,1,2.67.42A6.2,6.2,0,0,1,28.71,11a.33.33,0,0,1,.1.25.36.36,0,0,1-.06.2l0,0a.33.33,0,0,1-.19.06.32.32,0,0,1-.18-.06,1.3,1.3,0,0,1-.21-.17,8.42,8.42,0,0,0-1.23-.89A4.34,4.34,0,0,0,25.64,10a8,8,0,0,0-1.77-.16,8.45,8.45,0,0,0-2.46.35,4.24,4.24,0,0,0-1.88,1.15,3,3,0,0,0-.73,2.07,2.49,2.49,0,0,0,1.35,2.27,11.18,11.18,0,0,0,3.61,1.22,28.55,28.55,0,0,1,2.94.73,5.18,5.18,0,0,1,2,1.19A3,3,0,0,1,29.56,21a4.15,4.15,0,0,1-.78,2.57,4.64,4.64,0,0,1-2.13,1.54,8.61,8.61,0,0,1-3.06.51,8.1,8.1,0,0,1-3.16-.57A6.47,6.47,0,0,1,18,23.2.47.47,0,0,1,17.83,22.9Z"/></g></g></svg>