<svg xmlns="http://www.w3.org/2000/svg" viewBox="0 0 172.7 97.03"><defs><style>.cls-1,.cls-2{fill:none;stroke-miterlimit:10;}.cls-1{stroke:#39393c;}.cls-2{stroke:#007ac6;}.cls-3{fill:#007ac6;}.cls-4{font-size:28.48px;font-family:CocogoosePro-Thin, Cocogoose Pro;}.cls-4,.cls-8{fill:#f9f9f9;}.cls-5,.cls-6,.cls-7{font-size:21px;}.cls-6{letter-spacing:-0.06em;}.cls-7{letter-spacing:-0.03em;}.cls-8{font-size:7.07px;font-family:COCOGOOSE-UltraLight, COCOGOOSE ;}.cls-9{letter-spacing:-0.02em;}.cls-10{letter-spacing:-0.03em;}.cls-11{letter-spacing:-0.03em;}</style></defs><title>Recurso 17</title><g id="Capa_2" data-name="Capa 2"><g id="Capa_3" data-name="Capa 3"><path class="cls-1" d="M108,.5H64.73a5.5,5.5,0,0,0-5.56,5.44v41.6A5.5,5.5,0,0,0,64.73,53H108a5.5,5.5,0,0,0,5.56-5.44V5.94A5.5,5.5,0,0,0,108,.5Z"/><path class="cls-2" d="M86,39.45H76a2.63,2.63,0,0,1-2.63-2.64V16.66A2.63,2.63,0,0,1,76,14H86.1A12.63,12.63,0,0,1,98.73,26.67h0A12.78,12.78,0,0,1,86,39.45Z"/><circle class="cls-3" cx="99.78" cy="36.75" r="2.7"/><text class="cls-4" transform="translate(0 79.95)">&lt;<tspan class="cls-5" x="11.36" y="0">dgome</tspan><tspan class="cls-6" x="98.08" y="0">z</tspan><tspan class="cls-5" x="109.31" y="0">d</tspan><tspan class="cls-7" x="125.75" y="0">e</tspan><tspan class="cls-5" x="141.08" y="0">v/</tspan><tspan x="161.31" y="0">&gt;</tspan></text><text class="cls-8" transform="translate(11.86 94.96)">F<tspan class="cls-9" x="4.35" y="0">r</tspan><tspan x="8.07" y="0">ont End D</tspan><tspan class="cls-10" x="45.1" y="0">e</tspan><tspan class="cls-11" x="50.22" y="0">v</tspan><tspan x="54.16" y="0">elopment &amp; UI/UX design</tspan></text></g></g></svg>