<svg xmlns="http://www.w3.org/2000/svg" viewBox="0 0 80.25 58.88"><defs><style>.cls-1,.cls-3{fill:#f9f9f9;}.cls-2{fill:#007ac6;}.cls-3{font-size:14.98px;font-family:CocogoosePro-Thin, Cocogoose Pro;}.cls-4{letter-spacing:-0.05em;}.cls-5{letter-spacing:-0.06em;}</style></defs><title>Recurso 9</title><g id="Capa_2" data-name="Capa 2"><g id="Capa_4" data-name="Capa 4"><rect class="cls-1" x="21.43" width="37.38" height="36.08" rx="5.92" ry="5.92"/><path class="cls-2" d="M39.28,25.45a.63.63,0,0,1-.54-.28l-4.16-6.12-4.14,6.11a.61.61,0,0,1-.5.29.63.63,0,0,1-.39-.13.54.54,0,0,1-.25-.48.71.71,0,0,1,.11-.35L33.84,18l-4.4-6.52a.65.65,0,0,1-.12-.37.61.61,0,0,1,.19-.44.58.58,0,0,1,.41-.17.63.63,0,0,1,.53.29l4.13,6.11,4.16-6.13a.65.65,0,0,1,.51-.29.63.63,0,0,1,.41.15.58.58,0,0,1,.23.47.65.65,0,0,1-.12.36L35.33,18l4.45,6.55a.71.71,0,0,1,.11.35.59.59,0,0,1-.21.45A.62.62,0,0,1,39.28,25.45Z"/><path class="cls-2" d="M46,25.65a5.16,5.16,0,0,1-4.51-2.53,5,5,0,0,1-.68-2.55A5,5,0,0,1,41.46,18a5.13,5.13,0,0,1,1.86-1.87,5,5,0,0,1,2.57-.69,4.9,4.9,0,0,1,1.93.39,5.3,5.3,0,0,1,1.61,1.08q.23.24.42.48V11a.55.55,0,0,1,1-.39A.58.58,0,0,1,51,11V24.86a.6.6,0,0,1-.13.4.55.55,0,0,1-1-.4V23.69a5,5,0,0,1-.44.49,5.21,5.21,0,0,1-1.59,1.08A4.63,4.63,0,0,1,46,25.65Zm-.08-9.1a3.85,3.85,0,0,0-2,.54,4.12,4.12,0,0,0-1.48,1.48,3.92,3.92,0,0,0,0,4A3.86,3.86,0,0,0,43.88,24a3.94,3.94,0,0,0,4,0,4.14,4.14,0,0,0,1.45-1.46,3.83,3.83,0,0,0,.54-2,4,4,0,0,0-.53-2h0a4,4,0,0,0-1.45-1.47A3.81,3.81,0,0,0,45.88,16.55Z"/><text class="cls-3" transform="translate(0 54.92)"><tspan class="cls-4">A</tspan><tspan x="9.96" y="0">dobe </tspan><tspan class="cls-5" x="60.74" y="0">X</tspan><tspan x="68.53" y="0">d</tspan></text></g></g></svg>