<svg xmlns="http://www.w3.org/2000/svg" viewBox="0 0 44.86 44.72"><defs><style>.cls-1{fill:#39393c;}</style></defs><title>Recurso 14</title><g id="Capa_2" data-name="Capa 2"><g id="Capa_3" data-name="Capa 3"><path class="cls-1" d="M44.86,22.43a22.14,22.14,0,0,1-2.93,11.12,22.71,22.71,0,0,1-8.09,8.2l-.12-.21a21.93,21.93,0,0,0,8.13-8A22.16,22.16,0,0,0,44.86,22.43Z"/><path class="cls-1" d="M11.4,42a22.28,22.28,0,0,1-8.32-8.23A22.61,22.61,0,0,1,0,22.42H1A21.7,21.7,0,0,0,3.86,33.29a22.22,22.22,0,0,0,7.91,8Z"/><path class="cls-1" d="M11.4,2.89a22.47,22.47,0,0,1,22.45.23l-.13.22a21.93,21.93,0,0,0-21.94.2Z"/><path class="cls-1" d="M40.57,35.55a22.2,22.2,0,0,1-8.94,7.23,22.75,22.75,0,0,1-11.38,1.83l0-.25a21.73,21.73,0,0,0,11.31-1.67A22.14,22.14,0,0,0,40.57,35.55Z"/><path class="cls-1" d="M2,31.51A22.33,22.33,0,0,1,.19,20,22.62,22.62,0,0,1,4.4,9l.8.59A21.75,21.75,0,0,0,1.08,20.06,22.3,22.3,0,0,0,2.71,31.21Z"/><path class="cls-1" d="M25.15,0a22.42,22.42,0,0,1,18,13.46l-.23.1A22,22,0,0,0,25.06.76Z"/></g></g></svg>