<svg xmlns="http://www.w3.org/2000/svg" viewBox="0 0 199.37 208.12">
    <g id="Capa_2" data-name="Capa 2">
        <g id="Capa_3" data-name="Capa 3">
            <path class="cls-1" d="M99.73,113.9H91.58a2.15,2.15,0,0,1-2.15-2.15V95.33a2.14,2.14,0,0,1,2.15-2.14h8.26a10.3,10.3,0,0,1,10.3,10.3h0A10.41,10.41,0,0,1,99.73,113.9Z" />
            <circle class="cls-1" cx="110.99" cy="111.7" r="2.2" />
            <circle class="cls-2" cx="99.44" cy="103.54" r="35.36" />
            <circle class="cls-3" cx="99.54" cy="68.19" r="1.94" />
            <circle class="cls-3" cx="130.1" cy="86" r="1.94" />
            <circle class="cls-3" cx="130.1" cy="121.24" r="1.94" />
            <circle class="cls-3" cx="99.44" cy="138.9" r="1.94" />
            <circle class="cls-3" cx="68.77" cy="121.4" r="1.94" />
            <circle class="cls-3" cx="68.77" cy="85.84" r="1.94" />
            <circle class="cls-2" cx="99.54" cy="103.54" r="65.44" />
            <circle class="cls-3" cx="131.71" cy="46.56" r="3.59" />
            <circle class="cls-3" cx="164.91" cy="102.99" r="3.59" />
            <circle class="cls-3" cx="133" cy="159.88" r="3.59" />
            <circle class="cls-3" cx="67.53" cy="160.61" r="3.59" />
            <circle class="cls-3" cx="33.87" cy="104.6" r="3.59" />
            <circle class="cls-3" cx="66.07" cy="47.2" r="3.59" />
            <circle class="cls-2" cx="99.68" cy="104.04" r="99.17" />
            <circle class="cls-3" cx="113.32" cy="5.81" r="5.43" />
            <circle class="cls-3" cx="191.53" cy="66.87" r="5.43" />
            <circle class="cls-3" cx="178.21" cy="164.83" r="5.43" />
            <circle class="cls-3" cx="86.32" cy="202.31" r="5.43" />
            <circle class="cls-3" cx="7.7" cy="142.08" r="5.43" />
            <circle class="cls-3" cx="21.14" cy="43.24" r="5.43" />
        </g>
    </g>
</svg>