<svg xmlns="http://www.w3.org/2000/svg" viewBox="0 0 55.37 53.48"><defs><style>.cls-1,.cls-2{fill:none;stroke-miterlimit:10;}.cls-1{stroke:#39393c;}.cls-2{stroke:#007ac6;}.cls-3{fill:#007ac6;}</style></defs><title>Recurso 18</title><g id="Capa_2" data-name="Capa 2"><g id="Capa_3" data-name="Capa 3"><path class="cls-1" d="M49.3.5H6.07A5.5,5.5,0,0,0,.5,5.94v41.6A5.51,5.51,0,0,0,6.07,53H49.3a5.51,5.51,0,0,0,5.57-5.44V5.94A5.5,5.5,0,0,0,49.3.5Z"/><path class="cls-2" d="M27.29,39.45h-10a2.64,2.64,0,0,1-2.63-2.64V16.66A2.63,2.63,0,0,1,17.28,14H27.43A12.64,12.64,0,0,1,40.07,26.67h0A12.78,12.78,0,0,1,27.29,39.45Z"/><circle class="cls-3" cx="41.11" cy="36.75" r="2.7"/></g></g></svg>