<svg xmlns="http://www.w3.org/2000/svg" viewBox="0 0 54.37 52.48"><defs><style>.cls-1{fill:#f9f9f9;}.cls-2{fill:none;stroke:#007ac6;stroke-miterlimit:10;}</style></defs><title>Recurso 16</title><g id="Capa_2" data-name="Capa 2"><g id="Capa_3" data-name="Capa 3"><path class="cls-1" d="M48.8,0H5.57A5.5,5.5,0,0,0,0,5.44V47a5.51,5.51,0,0,0,5.57,5.44H48.8A5.51,5.51,0,0,0,54.37,47V5.44A5.5,5.5,0,0,0,48.8,0Z"/><path class="cls-2" d="M26.79,39h-10a2.64,2.64,0,0,1-2.63-2.64V16.16a2.63,2.63,0,0,1,2.63-2.63H26.93A12.64,12.64,0,0,1,39.57,26.17h0A12.78,12.78,0,0,1,26.79,39Z"/></g></g></svg>