<svg xmlns="http://www.w3.org/2000/svg" viewBox="0 0 84.96 58.88"><defs><style>.cls-1{font-size:14.98px;font-family:CocogoosePro-Thin, Cocogoose Pro;}.cls-1,.cls-4{fill:#f9f9f9;}.cls-2{letter-spacing:-0.03em;}.cls-3{letter-spacing:0.01em;}.cls-5{fill:none;stroke:#007ac6;stroke-miterlimit:10;}</style></defs><title>Recurso 8</title><g id="Capa_2" data-name="Capa 2"><g id="Capa_4" data-name="Capa 4"><text class="cls-1" transform="translate(2.52 54.92)">Ja<tspan class="cls-2" x="15.08" y="0">v</tspan><tspan x="23.5" y="0">aScri</tspan><tspan class="cls-3" x="65.96" y="0">p</tspan><tspan x="77.78" y="0">t</tspan></text><rect class="cls-4" x="23.79" width="37.38" height="36.08" rx="5.92" ry="5.92"/><path class="cls-5" d="M38,9.44a.3.3,0,0,1,.23-.08h0a.26.26,0,0,1,.21.09.31.31,0,0,1,.07.21v13.4a2.3,2.3,0,0,1-.48,1.4,3.28,3.28,0,0,1-1.32,1,4.26,4.26,0,0,1-1.83.39,5,5,0,0,1-1.43-.19,3.36,3.36,0,0,1-1.12-.56c-.15-.12-.22-.22-.22-.3a.21.21,0,0,1,.09-.16l0,0a.21.21,0,0,1,.14,0,.39.39,0,0,1,.26.1,3.33,3.33,0,0,0,2.22.67A3.57,3.57,0,0,0,36.43,25a2.94,2.94,0,0,0,1.09-.89A1.92,1.92,0,0,0,37.9,23V9.66A.33.33,0,0,1,38,9.44Z"/><path class="cls-5" d="M41.62,22.9a.31.31,0,0,1,.09-.22l0,0a.35.35,0,0,1,.17,0,.48.48,0,0,1,.34.21,5.7,5.7,0,0,0,2.11,1.65,7.35,7.35,0,0,0,3,.56,8.39,8.39,0,0,0,2.71-.41A4,4,0,0,0,52,23.33,3.54,3.54,0,0,0,52.72,21a2.42,2.42,0,0,0-.82-1.92,5.13,5.13,0,0,0-1.87-1c-.69-.21-1.57-.42-2.63-.63a14,14,0,0,1-3-.86,4.3,4.3,0,0,1-1.78-1.3,3,3,0,0,1-.6-1.91,3.75,3.75,0,0,1,.69-2.27,4.28,4.28,0,0,1,2-1.44,8.63,8.63,0,0,1,3-.49,7.64,7.64,0,0,1,2.67.42A6.2,6.2,0,0,1,52.5,11a.33.33,0,0,1,.1.25.31.31,0,0,1-.07.2l0,0a.33.33,0,0,1-.19.06.32.32,0,0,1-.18-.06,1.3,1.3,0,0,1-.21-.17,9,9,0,0,0-1.23-.89A4.34,4.34,0,0,0,49.43,10a8.1,8.1,0,0,0-1.77-.16,8.45,8.45,0,0,0-2.46.35,4.18,4.18,0,0,0-1.88,1.15,2.91,2.91,0,0,0-.73,2.07,2.5,2.5,0,0,0,1.34,2.27,11.26,11.26,0,0,0,3.61,1.22,27.9,27.9,0,0,1,2.94.73,5,5,0,0,1,2,1.19A3,3,0,0,1,53.34,21a4.21,4.21,0,0,1-.77,2.57,4.64,4.64,0,0,1-2.13,1.54,8.61,8.61,0,0,1-3.06.51,8.07,8.07,0,0,1-3.16-.57,6.39,6.39,0,0,1-2.45-1.89A.47.47,0,0,1,41.62,22.9Z"/></g></g></svg>