<svg xmlns="http://www.w3.org/2000/svg" viewBox="0 0 140.45 93.67"><defs><style>.cls-1{fill:none;stroke:#39393c;stroke-miterlimit:10;}.cls-2{fill:#232323;}.cls-3{fill:#19191b;}.cls-4{fill:#007bca;}.cls-5{opacity:0.6;}.cls-6{opacity:0.4;}.cls-7{fill:#fff;}</style></defs><title>UX design</title><g id="Capa_2" data-name="Capa 2"><g id="Capa_2-2" data-name="Capa 2"><g id="UX_design" data-name="UX design"><rect class="cls-1" x="0.5" y="0.5" width="139.45" height="92.67" rx="6.25" ry="6.25"/><rect class="cls-1" x="76.96" y="13.59" width="36.35" height="69.18" rx="9.38" ry="9.38" transform="translate(143.32 -46.96) rotate(90)"/><circle class="cls-2" cx="66.2" cy="48.32" r="2.38"/><rect class="cls-2" x="124.54" y="42.88" width="1.27" height="1.27" transform="translate(168.69 -81.65) rotate(90)"/><rect class="cls-3" x="80.38" y="23.15" width="30.98" height="50.17" transform="translate(144.11 -47.63) rotate(90)"/><rect class="cls-4" x="71.07" y="33" width="49.89" height="30.59"/><rect class="cls-2" x="121.94" y="48.2" width="6.46" height="1.27" transform="translate(174.01 -76.34) rotate(90)"/><rect class="cls-1" x="80.38" y="23.15" width="30.98" height="50.17" transform="translate(144.11 -47.63) rotate(90)"/><circle class="cls-5" cx="94.67" cy="44.61" r="4.85"/><rect class="cls-6" x="88.3" y="51.54" width="12.83" height="1.59"/><rect class="cls-6" x="91.48" y="54.19" width="6.46" height="1.55"/><rect class="cls-1" x="18.98" y="12.38" width="34.91" height="66.44" rx="9.38" ry="9.38"/><circle class="cls-2" cx="36.58" cy="73.4" r="2.29"/><rect class="cls-2" x="31.35" y="16.15" width="1.22" height="1.22"/><rect class="cls-3" x="21.62" y="52.34" width="29.76" height="16.66"/><rect class="cls-2" x="33.97" y="16.15" width="6.21" height="1.22"/><rect class="cls-1" x="21.62" y="20.81" width="29.76" height="48.19"/><rect class="cls-4" x="24.28" y="23.73" width="24.68" height="24.68"/><circle class="cls-5" cx="36.5" cy="32.47" r="4.65"/><rect class="cls-6" x="30.38" y="39.12" width="12.33" height="1.53"/><rect class="cls-6" x="33.44" y="41.67" width="6.21" height="1.49"/><rect class="cls-7" x="25.83" y="55.87" width="4.25" height="1.7"/><rect class="cls-7" x="32.36" y="55.87" width="14.55" height="1.7"/><rect class="cls-7" x="25.83" y="59.48" width="4.25" height="1.7"/><rect class="cls-7" x="32.36" y="59.48" width="10.43" height="1.7"/><rect class="cls-7" x="25.83" y="63.05" width="4.25" height="1.7"/><rect class="cls-7" x="32.36" y="63.05" width="12.51" height="1.7"/></g></g></g></svg>