<svg xmlns="http://www.w3.org/2000/svg" xmlns:xlink="http://www.w3.org/1999/xlink" viewBox="0 0 86.59 49.16">
    <defs>
        <style>
            .blancofondo {
                fill: #fff;
            }

            .degradadologoaja {
                fill: url(#Degradado_sin_nombre_8);
            }
        </style>
        <linearGradient id="Degradado_sin_nombre_8" x1="43.65" y1="9.72" x2="43.65" y2="44.59" gradientUnits="userSpaceOnUse">
            <stop offset="0" stop-color="#fe635f" />
            <stop offset="1" stop-color="#ff335e" />
        </linearGradient>
    </defs>
  <!--   <title>logomimimi</title> -->
    <g id="Capa_2" data-name="Capa 2">
        <g id="Capa_3" data-name="Capa 3">
            <rect class="blancofondo" x="13.35" y="5.14" width="60.59" height="44.02" rx="22.01" ry="22.01" />
            <rect class="degradadologoaja" x="18.78" y="9.72" width="49.73" height="34.87" rx="17.44" ry="17.44" />
            <ellipse class="blancofondo" cx="34.21" cy="27.15" rx="3.86" ry="4.29" />
            <ellipse class="blancofondo" cx="53.08" cy="27.15" rx="3.86" ry="4.29" />
            <path class="blancofondo" d="M47.34,9.15H39.91c-5.23,0-8-3.64-4.42-5.84A24.57,24.57,0,0,1,43,.23a9.52,9.52,0,0,1,3-.18,8.47,8.47,0,0,1,7.12,4.67C54.24,6.94,51.32,9.15,47.34,9.15Z" />
            <path class="blancofondo" d="M71.13,33.53a1.43,1.43,0,0,1-.81-1.31,1.62,1.62,0,0,1,1.19-1.45c6-2.72,15.4-9.52,11.14-24.58a1.44,1.44,0,0,1,1-1.77,1.43,1.43,0,0,1,1.76,1c5,17.76-7.22,25.47-12.71,28l-.15.07A1.42,1.42,0,0,1,71.13,33.53Z" />
            <path class="blancofondo" d="M25.86,45.28a1.42,1.42,0,0,0,.1-1.53A1.63,1.63,0,0,0,24.23,43c-6.57.42-18.07-1.15-21.4-16.45a1.43,1.43,0,0,0-2.8.61C4,45.21,18.39,46.26,24.41,45.87h.16A1.42,1.42,0,0,0,25.86,45.28Z" />
        </g>
    </g>
</svg>