<svg xmlns="http://www.w3.org/2000/svg" viewBox="0 0 120.99 120.5"><defs><style>.cls-1,.cls-2{fill:none;}.cls-1{stroke:#172a48;stroke-miterlimit:10;}.cls-3{fill:#172a48;}</style></defs><title>Recurso 1</title><g id="Capa_2" data-name="Capa 2"><g id="Capa_2-2" data-name="Capa 2"><rect id="circulo" class="cls-1" x="6.49" y="6.5" width="108" height="108" rx="54" ry="54"/><g id="esfera"><rect class="cls-2" x="6.49" y="6.5" width="108" height="108" transform="translate(-0.39 0.39) rotate(-0.37)"/><circle id="superblu" class="cls-3" cx="60.14" cy="6" r="6"/><circle class="cls-2" cx="114.99" cy="60.11" r="6"/><circle class="cls-2" cx="6" cy="61.39" r="6"/><circle class="cls-2" cx="60.88" cy="114.5" r="6"/></g><path class="cls-3" d="M42.88,67.78S49.32,59,39.86,49c0,0,18.33,14,20.83,16.36C60.69,65.35,51.47,63.26,42.88,67.78Z"/><path class="cls-3" d="M59.36,34.88a1.91,1.91,0,0,0-.48-1.39s2-.88,2.74.36,1.5,1.22,1.5,1.22c-.15.32-.18,2.27.4,2.65a2.82,2.82,0,0,1-2.17-1.22c-.62-1.29-2.45-.41-2.45-.41A1.8,1.8,0,0,0,59.36,34.88Z"/><polygon class="cls-3" points="58.14 46.43 58.13 50.32 58.6 50.34 58.61 46.45 58.14 46.43"/><polygon class="cls-3" points="58.59 32.84 58.13 33.02 58.13 39.2 58.6 39.19 58.59 32.84"/><path class="cls-3" d="M48.89,66c-.15,0-4.75,8.47,2.61,11.19,0,0,9.62,3.87,20.47-5.2a9.61,9.61,0,0,0-1.08-1.29s-13.24,2.88-20.22-5Z"/><path class="cls-3" d="M40.65,77.5S44.51,75,50.37,78,62,78,62,78s-6.78,3.55-11.8,1.35C44.61,76.88,42.76,76.5,40.65,77.5Z"/><path class="cls-3" d="M63.65,77.5a7.55,7.55,0,0,1,6.74-.29c3.36,1.71,6.69-.43,6.69-.43s-4,2.72-6.76,1.28A8.86,8.86,0,0,0,63.65,77.5Z"/><path class="cls-3" d="M70.66,79.25s-4.24-2.58-10.65.51-12.79,0-12.79,0,7.42,3.55,12.92,1.36C66.32,78.63,68.35,78.26,70.66,79.25Z"/><path class="cls-3" d="M53.33,42.5a2.16,2.16,0,0,0-1.65-2.15l11.59-1.89a7.18,7.18,0,0,1,1.8,4.14c.09,1.15-.4,3.7-1.71,4.65l-11.8-2.78A2.05,2.05,0,0,0,53.33,42.5Z"/><path class="cls-3" d="M70.6,42l-5,.78a5.69,5.69,0,0,1-1.93,5L60.3,47c-.52,1.06-1,1.1-1,1.1l11.33,2.69C71,51,74.3,46.31,70.6,42Z"/><path class="cls-3" d="M75.54,52.42,69.26,52c1.59,1.62,7.36,8.18,5.78,16.83,4.37,2.26,5.36,5,5.36,5C85.86,61.69,75.54,52.42,75.54,52.42Z"/><path class="cls-3" d="M42.47,46,52.33,56.8s.45-5.43-3.18-7l18.79,1.33s10.32,9.28,4.86,21.42c0,0-1.79-5-11.14-7.06L46.19,53.08Zm16.21,4.56-.48,0a18.29,18.29,0,0,1,3.1,14.76l.29.24A18.12,18.12,0,0,0,58.68,50.51Z"/></g></g></svg>