<svg width="212" height="251" viewBox="0 0 212 251" fill="none" xmlns="http://www.w3.org/2000/svg">
<path d="M3.26074 228.281C3.26074 228.281 22.627 215.738 52.0276 230.79C81.4283 245.841 110.377 230.79 110.377 230.79C110.377 230.79 76.3609 248.601 51.1747 237.563C23.1287 225.171 13.847 223.264 3.26074 228.281Z" fill="#172A48"/>
<path d="M118.656 228.281C123.794 225.433 129.523 223.819 135.392 223.567C141.261 223.314 147.108 224.43 152.471 226.826C169.329 235.405 186.036 224.669 186.036 224.669C186.036 224.669 165.968 238.315 152.12 231.091C141.762 225.814 129.749 224.806 118.656 228.281V228.281Z" fill="#172A48"/>
<path d="M153.827 237.061C153.827 237.061 132.554 224.117 100.394 239.62C68.2337 255.123 36.2241 239.62 36.2241 239.62C36.2241 239.62 73.4515 257.431 101.046 246.444C132.052 233.951 142.237 232.094 153.827 237.061Z" fill="#172A48"/>
<path d="M15.1519 175.3C15.1519 175.3 47.4624 131.249 0 81.0778C0 81.0778 91.9648 151.318 104.508 163.159C104.508 163.109 58.2494 152.623 15.1519 175.3Z" fill="#172A48"/>
<path d="M97.8335 10.2353C97.9128 8.97138 97.7408 7.70431 97.3275 6.50729C96.9141 5.31027 96.2676 4.20706 95.4253 3.26141C95.4253 3.26141 105.46 -1.15371 109.172 5.06758C112.885 11.2889 116.698 11.1885 116.698 11.1885C115.946 12.794 115.795 22.5775 118.705 24.484C116.543 24.365 114.437 23.7512 112.549 22.69C110.662 21.6288 109.043 20.1485 107.818 18.3631C104.707 11.8909 95.5256 16.3061 95.5256 16.3061C97.0211 14.6387 97.8437 12.4751 97.8335 10.2353V10.2353Z" fill="#172A48"/>
<path d="M91.7125 68.1838L91.6624 87.7006L94.0204 87.801L94.0706 68.2842L91.7125 68.1838Z" fill="#172A48"/>
<path d="M93.9702 0L91.6624 0.903092V31.9092L94.0204 31.859L93.9702 0Z" fill="#172A48"/>
<path d="M45.304 166.369C44.5514 166.369 21.4724 208.865 58.3988 222.512C58.3988 222.512 106.664 241.928 161.1 196.422C159.487 194.111 157.674 191.945 155.682 189.95C155.682 189.95 89.2544 204.4 54.2346 164.864L45.304 166.369Z" fill="#172A48"/>
<path d="M67.5811 48.4659C67.6394 45.9931 66.85 43.5748 65.3442 41.6126C63.8383 39.6504 61.7064 38.2623 59.3027 37.679L117.452 28.1965C122.617 33.9692 125.784 41.253 126.483 48.9676C126.934 54.7374 124.476 67.5312 117.903 72.2975L58.7007 58.3497C61.1107 58.0186 63.3253 56.8438 64.9511 55.0343C66.577 53.2247 67.5088 50.8975 67.5811 48.4659V48.4659Z" fill="#172A48"/>
<path d="M154.228 45.9575L129.142 49.8709C129.713 54.526 129.128 59.25 127.439 63.6253C125.75 68.0006 123.009 71.8925 119.459 74.9568L102.551 71.0434C99.9419 76.3616 97.5337 76.5623 97.5337 76.5623L154.378 90.0585C156.235 91.1121 172.791 67.5815 154.228 45.9575Z" fill="#172A48"/>
<path d="M179.012 98.2365L147.504 96.1293C155.482 104.257 184.431 137.17 176.504 180.568C198.429 191.907 203.396 205.654 203.396 205.654C230.789 144.746 179.012 98.2365 179.012 98.2365Z" fill="#172A48"/>
<path d="M13.0942 66.0262L62.5636 120.212C62.5636 120.212 64.8213 92.9685 46.6089 85.0915L140.882 91.7643C140.882 91.7643 192.659 138.324 165.265 199.232C165.265 199.232 156.284 174.146 109.374 163.811L31.7581 101.548L13.0942 66.0262ZM94.4226 88.9046H92.0143C99.7228 99.4327 105.097 111.484 107.779 124.253C110.461 137.023 110.389 150.218 107.568 162.958L109.023 164.162C112.255 151.274 112.623 137.834 110.1 124.788C107.578 111.742 102.226 99.408 94.4226 88.6537V88.9046Z" fill="#172A48"/>
</svg>
