<svg xmlns="http://www.w3.org/2000/svg" viewBox="0 0 683 768"><defs><style>.cls-1{fill:#172a48;}.cls-2{fill:#101f33;}</style></defs><title>Recurso 8</title><g id="Capa_2" data-name="Capa 2"><g id="Capa_2-2" data-name="Capa 2"><rect class="cls-1" width="683" height="768"/><path class="cls-2" d="M178,611.17l.67.54c.71.54,1.25,1,1.73,1.39l2.61,2.1c28.94-108.11-11.74-198.68-49.56-255l-1.74-.13c-1.52-.1-3.07-.2-4.65-.33l-1.82-.13C162.86,414.59,204.18,504.11,178,611.17Z"/><path class="cls-2" d="M2,373.15V442l23.11,25.46S29.93,410.4,2,373.15Z"/><path class="cls-2" d="M167.68,613.25C148.77,595.33,76.46,538.19,2,480.25V610.48C94.77,596.67,167.68,613.25,167.68,613.25Z"/><path class="cls-2" d="M145.08,93.76c-.64,13.89-7.89,20.59-7.89,20.59s31.19-15,41.78,7c9.12,19,36.92,20.92,36.92,20.92-9.83-6.51-9.35-39.69-6.85-45.15,0,0-11.81,1.94-25.5-20.94-12.61-21-46.69-6-46.69-6C143,75.89,145.4,86.32,145.08,93.76Z"/><polygon class="cls-2" points="124.03 356.93 132.03 357.4 132.2 291.12 124.18 290.74 124.03 356.93"/><polygon class="cls-2" points="131.8 59 124.03 62.08 124.03 167.42 132 167.25 131.8 59"/><path class="cls-2" d="M341.55,704.19S122.26,751.88,2,624.33V768H302.42a509.27,509.27,0,0,0,57.52-41.81S348.15,709.64,341.55,704.19Z"/><path class="cls-2" d="M242.41,225.45c-1.08-38.88-30.73-70.57-30.73-70.57L14.15,187c15.44,3.75,29.69,19.4,28.11,36.62C39.4,254.67,12,257.3,12,257.3l201.28,47.4C235.56,288.5,243.82,244.92,242.41,225.45Z"/><path class="cls-2" d="M336.55,215.41,251.8,228.7c2.58,6.84,2.66,58.14-32.94,85.33L161,300.43c-8.82,18-17.4,18.7-17.4,18.7l193.17,45.95C343.53,369.13,399.74,288.66,336.55,215.41Z"/><path class="cls-2" d="M420.76,392.74l-107-7.62C340.94,412.76,439.26,524.49,412.33,672c74.38,38.63,91.37,85.74,91.37,85.74C596.68,550.9,420.76,392.74,420.76,392.74Z"/><path class="cls-2" d="M183,615.26v-.06l-2.61-2.1C181.21,613.77,181.88,614.38,183,615.26Z"/><path class="cls-2" d="M178,611.21l.68.5-.67-.54Z"/><path class="cls-2" d="M125.25,359.56l0,0,1.82.13Z"/><path class="cls-2" d="M125.27,359.58,2,350.82v22.33c27.93,37.25,23.11,94.32,23.11,94.32L2,442v27.64L178,611.17C204.18,504.11,162.86,414.59,125.27,359.58Z"/><path class="cls-2" d="M183,615.2l1.1.89c159.43,35.17,190.05,120.28,190.05,120.28,93-206.83-82.93-365-82.93-365L133.48,360.17C171.3,416.52,212,507.09,183,615.2Z"/><path class="cls-2" d="M180.43,613.1c-.48-.41-1-.85-1.73-1.39Z"/><path class="cls-2" d="M127.09,359.71c1.58.13,3.13.23,4.65.33Z"/><path class="cls-2" d="M133.48,360.16l-1.74-.12,1.74.13Z"/></g></g></svg>