<svg xmlns="http://www.w3.org/2000/svg" viewBox="0 0 30.13 32.11"><defs><style>.cls-1{fill:#0c0c0c;}</style></defs><title>Recurso 35</title><g id="Capa_2" data-name="Capa 2"><g id="bderecho"><polygon class="cls-1" points="22.72 26.44 22.72 30.09 30.13 30.09 30.13 2.02 22.72 2.02 22.72 5.67 26.48 5.67 26.48 26.44 22.72 26.44"/><polygon class="cls-1" points="8.47 4.17 8.47 0 0 0 0 32.11 8.47 32.11 8.47 27.94 4.17 27.94 4.17 4.17 8.47 4.17"/><path class="cls-1" d="M16,5.56H6.83v21h9s9-.89,9-10.5A10,10,0,0,0,16,5.56ZM15.8,23H9.9V9.15H16s5.28.71,5.28,7S15.8,23,15.8,23Z"/></g></g></svg>